<svg xmlns="http://www.w3.org/2000/svg" xmlns:xlink="http://www.w3.org/1999/xlink" viewBox="0,0,256,256" width="48px" height="48px" fill-rule="nonzero"><g transform="translate(42.66667,42.66667) scale(0.66667,0.66667)"><g fill="none" fill-rule="nonzero" stroke="none" stroke-width="1" stroke-linecap="butt" stroke-linejoin="miter" stroke-miterlimit="10" stroke-dasharray="" stroke-dashoffset="0" font-family="none" font-weight="none" font-size="none" text-anchor="none" style="mix-blend-mode: normal"><g transform="scale(5.33333,5.33333)"><path transform="translate(-15.15512,36.5872) rotate(-45.001)" d="M34.6,28.1h4v17h-4z" fill="#5b83ff"></path><path d="M20,4c-8.83656,0 -16,7.16344 -16,16c0,8.83656 7.16344,16 16,16c8.83656,0 16,-7.16344 16,-16c0,-8.83656 -7.16344,-16 -16,-16z" fill="#5b83ff"></path><path transform="translate(-15.83953,38.24094) rotate(-45.001)" d="M36.2,32.1h4v12.3h-4z" fill="#67cdff"></path><path d="M20,7c-7.1797,0 -13,5.8203 -13,13c0,7.1797 5.8203,13 13,13c7.1797,0 13,-5.8203 13,-13c0,-7.1797 -5.8203,-13 -13,-13z" fill="#64b5f6"></path><path d="M26.9,14.2c-1.7,-2 -4.2,-3.2 -6.9,-3.2c-2.7,0 -5.2,1.2 -6.9,3.2c-0.4,0.4 -0.3,1.1 0.1,1.4c0.4,0.4 1.1,0.3 1.4,-0.1c1.4,-1.6 3.3,-2.5 5.4,-2.5c2.1,0 4,0.9 5.4,2.5c0.2,0.2 0.5,0.4 0.8,0.4c0.2,0 0.5,-0.1 0.6,-0.2c0.4,-0.4 0.4,-1.1 0.1,-1.5z" fill="#bbdefb"></path></g></g></g></svg>