<svg xmlns="http://www.w3.org/2000/svg" xmlns:xlink="http://www.w3.org/1999/xlink" viewBox="0,0,256,256" width="48px" height="48px" fill-rule="nonzero"><g transform="translate(42.66667,42.66667) scale(0.66667,0.66667)"><g fill="none" fill-rule="nonzero" stroke="none" stroke-width="1" stroke-linecap="butt" stroke-linejoin="miter" stroke-miterlimit="10" stroke-dasharray="" stroke-dashoffset="0" font-family="none" font-weight="none" font-size="none" text-anchor="none" style="mix-blend-mode: normal"><g transform="scale(5.33333,5.33333)"><path d="M24,4c-11.027,0 -20,8.973 -20,20c0,11.027 8.973,20 20,20c11.027,0 20,-8.973 20,-20c0,-11.027 -8.973,-20 -20,-20z" fill="#4facff"></path><path d="M41,24c0,9.389 -7.611,17 -17,17c-9.389,0 -17,-7.611 -17,-17c0,-9.389 7.611,-17 17,-17c9.389,0 17,7.611 17,17z" fill="#00adff"></path><path d="M15,28h7v2h-7zM26,28h7v2h-7zM15,25h7v2h-7zM26,25h7v2h-7zM20,21v-3c0,-2.207 1.793,-4 4,-4c2.203,0 4,1.793 4,4v3h2v-3c0,-3.313 -2.688,-6 -6,-6c-3.313,0 -6,2.688 -6,6v3zM15,22h18v2h-18zM15,31h18v2h-18z" fill="#e3e4e6"></path></g></g></g></svg>